<?xml version="1.0" encoding="UTF-8"?>
<svg id="Calque_1" data-name="Calque 1" xmlns="http://www.w3.org/2000/svg" viewBox="0 0 563.54 89.14">
  <path d="M40.11,18.43h-13.83v44.57h-10.73V18.43H1.66v-9.43h38.45v9.43Z"/>
  <path d="M79.71,40.25v22.75h-10.51v-21.46c0-3.67-2.74-6.12-6.7-6.12s-7.34,2.95-7.34,6.7v20.88h-10.51V9h10.51v21.67c2.66-2.74,6.26-4.39,10.44-4.39,8.42,0,14.11,5.47,14.11,13.97Z"/>
  <path d="M86.11,45c0-10.51,7.85-18.72,18.79-18.72s18.79,8.21,18.79,18.72-7.92,18.72-18.79,18.72-18.79-8.28-18.79-18.72ZM113.33,45c0-5.33-3.46-9.58-8.42-9.58s-8.42,4.25-8.42,9.58,3.31,9.5,8.42,9.5,8.42-4.18,8.42-9.5Z"/>
  <path d="M186.92,40.1v22.9h-10.51v-21.6c0-3.53-2.38-5.98-5.98-5.98s-6.62,2.95-6.62,6.7v20.88h-10.51v-21.6c0-3.53-2.38-5.98-5.9-5.98-3.74,0-6.7,2.95-6.7,6.7v20.88h-10.51V27h9.43l.5,3.82c2.52-2.81,6.05-4.54,10.22-4.54,4.97,0,8.93,2.09,11.23,5.62,2.81-3.46,6.98-5.62,11.88-5.62,8.14,0,13.46,5.47,13.46,13.83Z"/>
  <path d="M227.16,40.1v22.9h-8.86l-.5-3.53c-3.53,2.74-7.56,4.25-11.88,4.25-6.84,0-11.67-4.25-11.67-11.02s5.98-12.17,17.57-10.37l5.11.79v-3.1c0-4.18-3.53-5.83-7.13-5.83-3.17,0-6.26,1.22-8.86,4.32l-6.26-5.98c3.96-4.32,8.57-6.26,16.13-6.26,9.43,0,16.35,4.25,16.35,13.83ZM209.59,56.02c3.02,0,5.4-1.51,7.34-3.24v-3.67l-2.88-.58c-6.98-1.37-8.86,1.15-8.86,3.6s1.8,3.89,4.39,3.89Z"/>
  <path d="M233.42,59.26l4.61-7.42c2.38,2.02,7.27,3.6,10.73,3.82,3.38.22,5.9-.79,5.9-2.81,0-2.45-3.46-3.46-7.49-4.61-5.54-1.58-12.17-3.6-12.17-10.37s5.98-11.59,15.05-11.59c4.54,0,10.44,1.08,14.76,3.89l-4.9,6.77c-1.94-1.44-5.54-2.74-8.28-3.02-3.02-.36-6.12.43-6.12,2.52,0,2.45,3.82,3.31,8.06,4.68,5.4,1.66,11.45,4.03,11.45,11.09s-5.62,11.52-14.4,11.52c-6.55,0-13.25-1.44-17.21-4.46Z"/>
  <path d="M347.83,9v54.01h-10.8V24.26l-18.65,28.37-18.43-28.37v38.74h-10.87V9h11.74l17.64,26.28,17.79-26.28h11.59Z" style="fill: #1b1b5d;"/>
  <path d="M392.18,52.77h-24.41l-3.82,10.23h-11.74l21.67-54.01h12.17l21.67,54.01h-11.74l-3.82-10.23ZM388.87,43.85l-8.86-23.83-8.93,23.83h17.79Z" style="fill: #1b1b5d;"/>
  <path d="M442.22,18.43h-13.83v44.57h-10.73V18.43h-13.9v-9.43h38.45v9.43Z" style="fill: #1b1b5d;"/>
  <path d="M493.13,9v54.01h-10.87v-22.25h-23.19v22.25h-10.87V9h10.87v22.18h23.19V9h10.87Z" style="fill: #1b1b5d;"/>
  <path d="M501.76,9h10.87v54.01h-10.87V9Z" style="fill: #1b1b5d;"/>
  <path d="M519.55,53.71l7.49-7.42c3.1,4.75,8.14,7.34,14.18,7.34,4.9,0,8.57-1.66,8.64-5.83,0-5.04-5.98-7.27-12.31-9.72-7.34-2.88-15.12-6.19-15.12-14.91s7.85-14.91,18.22-14.91c8.5,0,15.41,3.17,19.8,7.85l-7.06,6.84c-3.31-3.74-7.13-5.62-12.46-5.62-4.32,0-7.34,2.09-7.34,5.4,0,3.67,4.68,5.54,10.15,7.7,7.78,3.1,17.14,6.77,17.14,17.21s-9,16.06-20.02,16.06c-8.71,0-16.78-4.03-21.31-10.01Z" style="fill: #1b1b5d;"/>
</svg>